<?xml version="1.0" standalone="no"?>
<!DOCTYPE svg PUBLIC "-//W3C//DTD SVG 20010904//EN"
 "http://www.w3.org/TR/2001/REC-SVG-20010904/DTD/svg10.dtd">
<svg version="1.0" xmlns="http://www.w3.org/2000/svg"
 width="2250.000000pt" height="2250.000000pt" viewBox="0 0 2250.000000 2250.000000"
 preserveAspectRatio="xMidYMid meet">
<metadata>
Created by potrace 1.14, written by Peter Selinger 2001-2017
</metadata>
<g transform="translate(0.000000,2250.000000) scale(0.100000,-0.100000)"
fill="#000000" stroke="none">
<path d="M0 11250 l0 -11250 8528 0 8527 1 2722 2541 2723 2542 0 8708 0 8708
-11250 0 -11250 0 0 -11250z m11680 6075 c464 -52 898 -174 1313 -369 l117
-55 0 225 0 224 1103 -2 1102 -3 3 -2020 c3 -2043 0 -2292 -33 -2552 -136
-1057 -672 -2012 -1501 -2673 -588 -470 -1273 -756 -2049 -857 -201 -26 -769
-26 -970 0 -888 116 -1686 490 -2305 1081 -346 331 -603 672 -816 1081 -504
969 -597 2099 -260 3138 94 287 267 655 426 905 703 1106 1857 1794 3169 1892
157 12 535 4 701 -15z m3617 -7752 c15 -180 9 -673 -10 -832 -135 -1095 -676
-2057 -1535 -2729 -924 -722 -2116 -1008 -3277 -786 -1235 237 -2294 1043
-2863 2180 -167 334 -288 697 -356 1074 -31 167 -58 404 -54 462 l3 43 145 3
c110 2 148 6 160 17 14 13 88 16 449 22 341 5 434 9 442 20 9 10 48 13 160 13
88 0 150 4 154 10 4 6 65 10 149 10 115 0 146 3 156 15 10 12 40 15 155 15
129 0 144 2 160 20 10 11 26 20 37 20 15 0 18 -8 18 -46 0 -26 7 -94 16 -153
116 -792 732 -1425 1524 -1566 129 -23 389 -31 520 -16 525 60 995 332 1303
754 182 249 298 533 343 839 11 77 15 161 12 293 -2 155 -1 185 11 185 8 0 22
7 31 15 13 12 62 16 233 21 163 5 220 11 228 21 9 10 47 13 153 13 139 0 143
1 166 25 l23 25 283 0 c238 0 283 2 294 15 10 12 40 15 149 15 134 0 138 1
161 25 23 24 27 25 166 25 114 0 144 3 154 15 8 10 31 15 70 15 l58 0 9 -97z"/>
<path d="M11000 15125 c-199 -27 -365 -78 -550 -166 -382 -183 -681 -478 -865
-854 -76 -156 -115 -262 -149 -416 -142 -641 54 -1291 526 -1745 148 -141 269
-227 449 -317 529 -267 1117 -273 1647 -17 932 450 1316 1568 857 2495 -109
221 -249 406 -425 562 -229 204 -534 362 -825 429 -192 43 -470 56 -665 29z"/>
</g>
</svg>
